<svg id="flat" height="512" viewBox="0 0 512 512" width="512" xmlns="http://www.w3.org/2000/svg"><path d="m168 72h312v416h-312z" fill="#cf8300"/><path d="m376.00006 440a56 56 0 0 0 55.99994-55.99994v-360.00006h-320v416z" fill="#f6bb00"/><path d="m376 440h-288a56 56 0 0 1 -56-56v-40h288v40.00005a56 56 0 0 0 55.99994 55.99995z" fill="#eda600"/><g fill="#cf8300"><path d="m216 104h24v16h-24z"/><path d="m256 104h32v16h-32z"/><path d="m304 104h64v16h-64z"/><path d="m176 144h80v16h-80z"/><path d="m272 144h40v16h-40z"/><path d="m328 144h40v16h-40z"/><path d="m176 264h64v16h-64z"/><path d="m256 264h40v16h-40z"/><path d="m312 264h56v16h-56z"/><path d="m176 184h56v16h-56z"/><path d="m248 184h120v16h-120z"/><path d="m176 224h24v16h-24z"/><path d="m216 224h48v16h-48z"/><path d="m280 224h88v16h-88z"/></g></svg>